<svg xmlns="http://www.w3.org/2000/svg" version="1.1" xmlns:xlink="http://www.w3.org/1999/xlink" width="1000" height="1000"><style>
    #light-icon {
      display: inline;
    }
    #dark-icon {
      display: none;
    }

    @media (prefers-color-scheme: dark) {
      #light-icon {
        display: none;
      }
      #dark-icon {
        display: inline;
      }
    }
  </style><g id="light-icon"><svg xmlns="http://www.w3.org/2000/svg" version="1.1" xmlns:xlink="http://www.w3.org/1999/xlink" width="1000" height="1000"><g clip-path="url(#SvgjsClipPath1225)"><rect width="1000" height="1000" fill="#ffffff"></rect><g transform="matrix(5,0,0,5,50,50)"><svg xmlns="http://www.w3.org/2000/svg" version="1.1" xmlns:xlink="http://www.w3.org/1999/xlink" width="180" height="180"><svg width="180" height="180" xmlns="http://www.w3.org/2000/svg">
  <!-- Background gradient -->
  <defs>
    <linearGradient id="grad1" x1="0%" y1="0%" x2="100%" y2="100%">
      <stop offset="0%" style="stop-color:#667eea;stop-opacity:1"></stop>
      <stop offset="50%" style="stop-color:#764ba2;stop-opacity:1"></stop>
      <stop offset="100%" style="stop-color:#f093fb;stop-opacity:1"></stop>
    </linearGradient>
  <clipPath id="SvgjsClipPath1225"><rect width="1000" height="1000" x="0" y="0" rx="450" ry="450"></rect></clipPath></defs>
  
  <!-- Background circle -->
  <circle cx="90" cy="90" r="85" fill="url(#grad1)"></circle>
  
  <!-- Calculator icon elements -->
  <g transform="translate(90, 90)">
    <!-- Screen -->
    <rect x="-45" y="-55" width="90" height="35" rx="4" fill="white" opacity="0.9"></rect>
    
    <!-- Display text -->
    <text x="30" y="-30" font-family="Arial, sans-serif" font-size="18" font-weight="bold" fill="#667eea" text-anchor="end">123</text>
    
    <!-- Buttons grid -->
    <!-- Row 1 -->
    <circle cx="-25" cy="-5" r="8" fill="white" opacity="0.9"></circle>
    <circle cx="0" cy="-5" r="8" fill="white" opacity="0.9"></circle>
    <circle cx="25" cy="-5" r="8" fill="white" opacity="0.9"></circle>
    
    <!-- Row 2 -->
    <circle cx="-25" cy="15" r="8" fill="white" opacity="0.9"></circle>
    <circle cx="0" cy="15" r="8" fill="white" opacity="0.9"></circle>
    <circle cx="25" cy="15" r="8" fill="white" opacity="0.9"></circle>
    
    <!-- Row 3 -->
    <circle cx="-25" cy="35" r="8" fill="white" opacity="0.9"></circle>
    <circle cx="0" cy="35" r="8" fill="white" opacity="0.9"></circle>
    <circle cx="25" cy="35" r="8" fill="white" opacity="0.9"></circle>
    
    <!-- Row 4 with larger equal button -->
    <circle cx="-25" cy="55" r="8" fill="white" opacity="0.9"></circle>
    <rect x="-5" y="47" width="35" height="16" rx="8" fill="#10b981" opacity="0.9"></rect>
  </g>
</svg></svg></g></g></svg></g><g id="dark-icon"><svg xmlns="http://www.w3.org/2000/svg" version="1.1" xmlns:xlink="http://www.w3.org/1999/xlink" width="1000" height="1000"><g><g transform="matrix(5.555555555555555,0,0,5.555555555555555,0,0)" style="filter: invert(100%)"><svg xmlns="http://www.w3.org/2000/svg" version="1.1" xmlns:xlink="http://www.w3.org/1999/xlink" width="180" height="180"><svg width="180" height="180" xmlns="http://www.w3.org/2000/svg">
  <!-- Background gradient -->
  <defs>
    <linearGradient id="grad1" x1="0%" y1="0%" x2="100%" y2="100%">
      <stop offset="0%" style="stop-color:#667eea;stop-opacity:1"></stop>
      <stop offset="50%" style="stop-color:#764ba2;stop-opacity:1"></stop>
      <stop offset="100%" style="stop-color:#f093fb;stop-opacity:1"></stop>
    </linearGradient>
  </defs>
  
  <!-- Background circle -->
  <circle cx="90" cy="90" r="85" fill="url(#grad1)"></circle>
  
  <!-- Calculator icon elements -->
  <g transform="translate(90, 90)">
    <!-- Screen -->
    <rect x="-45" y="-55" width="90" height="35" rx="4" fill="white" opacity="0.9"></rect>
    
    <!-- Display text -->
    <text x="30" y="-30" font-family="Arial, sans-serif" font-size="18" font-weight="bold" fill="#667eea" text-anchor="end">123</text>
    
    <!-- Buttons grid -->
    <!-- Row 1 -->
    <circle cx="-25" cy="-5" r="8" fill="white" opacity="0.9"></circle>
    <circle cx="0" cy="-5" r="8" fill="white" opacity="0.9"></circle>
    <circle cx="25" cy="-5" r="8" fill="white" opacity="0.9"></circle>
    
    <!-- Row 2 -->
    <circle cx="-25" cy="15" r="8" fill="white" opacity="0.9"></circle>
    <circle cx="0" cy="15" r="8" fill="white" opacity="0.9"></circle>
    <circle cx="25" cy="15" r="8" fill="white" opacity="0.9"></circle>
    
    <!-- Row 3 -->
    <circle cx="-25" cy="35" r="8" fill="white" opacity="0.9"></circle>
    <circle cx="0" cy="35" r="8" fill="white" opacity="0.9"></circle>
    <circle cx="25" cy="35" r="8" fill="white" opacity="0.9"></circle>
    
    <!-- Row 4 with larger equal button -->
    <circle cx="-25" cy="55" r="8" fill="white" opacity="0.9"></circle>
    <rect x="-5" y="47" width="35" height="16" rx="8" fill="#10b981" opacity="0.9"></rect>
  </g>
</svg></svg></g></g></svg></g></svg>